# xmcd
#
# Track frame offsets:
#	150
#	31496
#	51268
#	65372
#	110250
#	125253
#	151107
#	196369
#	221133
#	276079
#
# Disc length: 4305 seconds
#
# Revision: 0
# Processed by: cddbd v1.5PL3 Copyright (c) Steve Scherf et al.
# Submitted via: dBpowerAMP V4.0
#
DISCID=8c10cf0a
DTITLE=Indigenous - Live at Pachyderm
DYEAR=2000
DGENRE=Blues
TTITLE0=Holdin' Out
TTITLE1=Begin To Wonder
TTITLE2=Don;t Take Your Time
TTITLE3=Blues From The Sky
TTITLE4=Blues This Morning
TTITLE5=Water
TTITLE6=I Wonder Why
TTITLE7=Bring Back That Day
TTITLE8=Red House
TTITLE9=[Hidden Track]
EXTD=Live at La Zona Rosa in Austin TX
EXTT0=
EXTT1=
EXTT2=
EXTT3=
EXTT4=
EXTT5=
EXTT6=
EXTT7=
EXTT8=
EXTT9=
PLAYORDER=
